<?xml version="1.0" standalone="no"?>
<!DOCTYPE svg PUBLIC "-//W3C//DTD SVG 20010904//EN"
 "http://www.w3.org/TR/2001/REC-SVG-20010904/DTD/svg10.dtd">
<svg version="1.0" xmlns="http://www.w3.org/2000/svg"
 width="260.000000pt" height="260.000000pt" viewBox="0 0 260.000000 260.000000"
 preserveAspectRatio="xMidYMid meet">
<metadata>
Created by potrace 1.11, written by Peter Selinger 2001-2013
</metadata>
<g transform="translate(0.000000,260.000000) scale(0.100000,-0.100000)"
fill="#000000" stroke="none">
<path d="M77 2442 c-21 -23 -21 -60 -3 -149 23 -106 107 -354 157 -461 26 -55
37 -97 52 -187 2 -11 14 -42 27 -70 13 -27 22 -53 22 -57 -1 -5 3 -8 10 -8 6
0 1 -12 -13 -27 -13 -14 -19 -23 -12 -19 9 5 9 -3 -1 -33 -9 -24 -13 -71 -12
-125 1 -48 -1 -89 -5 -92 -4 -2 -8 -12 -8 -22 0 -9 -2 -37 -6 -62 -9 -63 -9
-118 -1 -176 8 -54 44 -189 56 -213 12 -23 34 -77 66 -158 15 -40 30 -70 34
-68 3 2 7 -5 7 -16 1 -10 9 -26 17 -35 9 -9 14 -19 11 -24 -3 -5 0 -12 6 -16
8 -5 10 -2 5 7 -4 8 -1 5 8 -6 8 -11 20 -25 25 -31 5 -7 7 -15 4 -18 -4 -3 -1
-6 6 -6 8 0 11 -7 7 -15 -3 -8 -2 -14 3 -12 4 1 27 -17 50 -40 22 -24 46 -43
52 -43 5 0 7 -4 4 -10 -4 -6 1 -7 11 -3 12 4 15 3 10 -6 -5 -8 -3 -12 5 -10
27 3 40 -1 34 -11 -4 -6 2 -7 17 -1 16 6 30 3 47 -8 23 -15 34 -18 76 -25 11
-2 20 -4 20 -6 0 -3 47 -10 68 -11 9 0 17 -4 17 -8 0 -7 15 -11 53 -12 9 0 17
-5 17 -10 0 -6 9 -5 21 2 15 8 19 8 15 0 -5 -7 6 -11 31 -12 36 -1 52 -3 63
-8 18 -8 238 -7 254 1 14 8 17 7 11 -3 -5 -8 -4 -10 3 -5 11 7 28 11 82 22 14
3 43 10 65 16 22 6 45 12 52 14 7 1 54 22 105 46 51 25 96 44 99 44 3 -1 13 6
22 14 33 30 44 38 65 44 13 4 19 12 16 18 -5 8 -1 9 10 5 9 -4 15 -3 13 1 -5
8 19 33 25 27 3 -3 15 13 27 35 12 22 26 40 31 40 5 0 7 7 4 15 -4 8 -1 15 5
15 6 0 10 3 10 8 -3 19 2 33 10 28 5 -3 7 8 6 24 -1 16 0 28 4 27 3 -1 7 2 8
7 1 5 6 12 11 15 6 3 12 15 14 26 1 11 9 26 16 34 7 7 11 20 8 27 -3 8 -1 14
4 14 6 0 9 3 9 8 -1 4 -1 9 1 12 4 12 12 89 14 132 0 25 5 44 10 41 5 -3 6 0
4 8 -3 8 -1 22 3 31 5 9 5 19 1 22 -12 7 -3 99 10 107 7 4 6 8 -2 11 -10 3 -9
7 2 19 8 8 13 20 10 27 -2 6 2 12 8 12 7 0 10 7 6 15 -3 8 0 14 7 12 7 -1 11
6 11 15 -1 10 2 16 6 13 23 -14 36 111 16 159 -24 57 -29 136 -12 187 8 24 24
80 36 124 11 43 26 85 31 92 6 7 8 17 5 22 -4 5 -2 12 4 16 5 3 10 15 10 25 0
10 3 20 8 22 4 2 16 21 27 43 11 22 23 45 28 50 4 6 27 37 52 69 25 33 45 62
45 65 0 4 11 18 25 33 14 15 25 29 23 30 -1 2 10 26 24 53 50 100 45 135 -16
130 -37 -4 -133 -48 -198 -92 -43 -29 -131 -73 -145 -73 -5 0 -29 -11 -55 -25
-26 -14 -72 -32 -103 -39 -30 -8 -60 -18 -65 -21 -12 -7 -61 -18 -75 -16 -5 0
-75 3 -155 6 -134 5 -195 9 -195 14 0 2 -7 4 -15 6 -8 1 -33 8 -55 13 -22 6
-58 12 -80 13 -22 2 -49 8 -60 14 -11 7 -29 11 -40 11 -11 -1 -23 4 -27 9 -5
6 -8 6 -8 -2 0 -8 -9 -9 -30 -3 -19 5 -30 5 -30 -1 0 -6 -5 -7 -11 -3 -13 8
-209 12 -209 4 0 -3 -34 -5 -75 -5 -44 0 -75 -4 -75 -10 0 -5 -5 -3 -10 5 -5
8 -10 10 -10 4 0 -7 -16 -15 -36 -18 -29 -6 -44 -2 -86 25 -27 18 -54 43 -59
56 -5 13 -17 26 -26 30 -10 4 -20 10 -23 13 -30 40 -303 220 -334 220 -9 0
-16 4 -16 8 0 12 -69 32 -107 32 -16 0 -37 -8 -46 -18z"/>
</g>
</svg>
